PathFileType	4	(X/Y/Z)	C:/Users/beibeiliu/ov580/test_trc\sequence.4_training_dense_left.trc
DataRate	CameraRate	NumFrames	NumMarkers	Units	OrigDataRate	OrigDataStartFrame	OrigNumFrames
120	120	8	19	mm	120	65	258
Frame#	Time	ThumbCMC			ThumbMCP			ThumbIP			ThumbTip			IndexMCP			IndexPIP			IndexTip			MiddleMCP			MiddlePIP			MiddleTip			RingMCP			RingPIP			RingTip			PinkyMCP			PinkyPIP			PinkyTip			BackHand1			BackHand2			BackHand3	
		X0	Y0	Z0	X1	Y1	Z1	X2	Y2	Z2	X3	Y3	Z3	X4	Y4	Z4	X5	Y5	Z5	X6	Y6	Z6	X7	Y7	Z7	X8	Y8	Z8	X9	Y9	Z9	X10	Y10	Z10	X11	Y11	Z11	X12	Y12	Z12	X13	Y13	Z13	X14	Y14	Z14	X15	Y15	Z15	X16	Y16	Z16	X17	Y17	Z17	X18	Y18	Z18	
64	0.533333	-186.691	-8.68917	13.1465	-159.209	5.27398	22.3062	-129.612	0.306667	19.5859	-115.478	-16.8022	22.1703	-128.879	-10.3404	-18.4769	-105.924	-4.07014	-5.8968	-94.1504	1.79482	11.9383	-123.804	-24.6441	-6.11196	-121.915	-21.3746	24.4879	-153.606	-24.2215	27.8892	-125.971	-44.2648	7.03138	-132.473	-33.1808	31.3503	-161.492	-33.4729	29.0477	-134.268	-54.9487	10.9238	-137.507	-44.8883	33.9477	-163.31	-43.2111	34.5443	-174.452	-55.2862	-9.43405	-199.07	-56.8108	2.54124	-189.636	-28.9894	-9.4787	
65	0.541667	-187.389	-5.70956	13.4821	-156.941	9.29327	19.16	-136.657	7.6023	22.5942	-114.811	-7.32334	23.2301	-134.606	-2.64124	-20.2058	-108.898	4.71296	-5.94235	-95.3013	11.7174	16.4265	-123.313	-15.8873	-5.6541	-121.372	-14.3949	24.3876	-150.395	-21.4148	29.3609	-125.29	-30.9552	7.09054	-133.837	-24.1464	31.653	-159.953	-30.8906	29.9807	-128.981	-45.566	14.1729	-135.849	-39.9331	35.6812	-162.096	-34.8159	30.5008	-171.335	-52.0751	-7.08592	-192.585	-58.6034	0.356886	-188.949	-31.1829	-10.1164	
66	0.55	-188.105	-0.661987	12.9881	-162.279	18.175	20.2271	-136.233	16.4648	21.1633	-113.114	3.90268	24.6557	-135.429	5.71247	-20.2142	-111.636	16.0109	-6.8874	-100.938	23.7676	17.5225	-121.197	-8.82772	-4.76796	-119.053	0.153643	21.9295	-151.851	-13.1849	27.169	-122.582	-23.519	8.13339	-130.538	-18.0094	33.5833	-156.624	-22.6044	31.1511	-125.83	-41.0396	12.2737	-133.156	-29.3547	33.7272	-158.59	-34.7595	33.2624	-167.568	-46.9963	-8.51579	-187.34	-54.349	2.12597	-187.434	-27.3396	-10.8823	
67	0.558333	-188.849	4.04689	10.9627	-164.793	23.3849	19.7974	-137.63	27.3128	20.8099	-115.992	11.7443	23.8516	-133.373	11.4944	-18.7024	-114.19	25.6977	-5.86237	-104.97	35.1726	17.8337	-122.034	-0.859622	-3.81718	-121.11	6.75123	24.8052	-149.031	-6.87593	29.7834	-120.895	-14.392	8.45696	-132.619	-8.19875	33.7372	-156.835	-17.2559	29.3086	-121.395	-28.9662	17.5973	-134.09	-21.7619	37.1254	-158.45	-28.0086	28.6875	-161.806	-42.648	-8.95291	-182.171	-48.6039	1.8706	-183.358	-23.1253	-10.9507	
68	0.566667	-189.844	7.56621	12.1439	-167.044	30.5759	20.546	-144.044	33.0791	21.402	-117.586	26.5183	26.1796	-132.647	23.7949	-17.2273	-113.328	38.1648	-1.0944	-107.317	42.6109	21.5055	-120.841	9.71074	-3.18572	-119.844	16.1381	24.7304	-149.029	3.63718	31.0646	-121.22	-3.75206	7.94541	-130.899	1.38405	34.1718	-153.729	-12.1143	34.0118	-118.192	-20.9722	18.5107	-132.923	-11.2118	37.5811	-156.02	-17.8976	30.5532	-155.025	-33.4272	-8.95962	-177.576	-47.2996	1.12215	-178.563	-18.8513	-10.1027	
69	0.575	-189.237	8.6487	13.1746	-167.742	35.339	20.0303	-144.973	43.2095	22.3569	-121.175	38.4397	28.3265	-136.948	36.8021	-16.618	-118.566	49.6393	1.20548	-113.782	54.3697	24.5888	-120.982	22.1705	0.652809	-122.086	26.6411	27.0403	-151.728	9.11115	30.5027	-119.375	5.22255	12.1415	-129.217	9.83485	36.4732	-154.719	-2.77813	33.3159	-117.086	-8.21199	20.1821	-132.841	-1.38375	38.6377	-154.353	-12.0949	35.6195	-153.797	-28.975	-7.28573	-175.652	-42.7381	4.54956	-177.95	-13.4039	-9.25771	
70	0.583333	-191.593	16.5279	13.1666	-171.89	39.0395	21.0841	-148.834	51.3014	24.7414	-123.646	46.8688	29.2755	-139.875	45.8767	-16.6795	-126.769	61.4928	-3.16728	-120.178	65.7346	28.1713	-127.651	33.9803	-0.507226	-127.016	37.8009	27.978	-154.138	20.7433	30.7696	-120.216	16.6558	12.5962	-137.009	20.4212	37.3537	-157.533	0.921334	31.1655	-117.148	3.99174	22.9039	-130.905	5.43663	41.8697	-156.22	-5.04199	31.94	-148.351	-19.3469	-6.79076	-173.786	-31.5581	4.07821	-177.413	-7.2083	-8.5213	
71	0.591667	-190.465	21.8027	11.637	-178.479	47.0011	23.9149	-153.761	56.5075	25.7579	-127.903	55.9009	33.1036	-140.581	50.7259	-14.4338	-130.388	70.5766	1.90236	-129.322	75.6544	29.5657	-129.872	43.2139	0.0796685	-135.022	49.5862	28.7551	-158.579	24.3353	28.6507	-124.982	30.645	16.1037	-136.281	31.0211	37.3675	-158.245	7.49114	31.8595	-118.989	12.3226	21.1403	-135.702	16.5668	41.5212	-157.995	1.76763	33.4255	-145.66	-9.56322	-5.42838	-167.471	-27.062	4.18592	-177.115	0.430043	-9.93111	
